<?xml version="1.0" encoding="UTF-8"?>
<svg version="1.1" xmlns="http://www.w3.org/2000/svg" width="16" height="16">
<path d="M0 0 C5.28 0 10.56 0 16 0 C16 5.28 16 10.56 16 16 C10.72 16 5.44 16 0 16 C0 10.72 0 5.44 0 0 Z " fill="#20313C" transform="translate(0,0)"/>
<path d="M0 0 C5.28 0 10.56 0 16 0 C16 5.28 16 10.56 16 16 C10.72 16 5.44 16 0 16 C0 10.72 0 5.44 0 0 Z M1 3 C0.75684344 5.66949409 0.75684344 5.66949409 0.875 8.625 C0.91625 10.39875 0.9575 12.1725 1 14 C5.62 14 10.24 14 15 14 C15.34137711 7.87403266 15.34137711 7.87403266 14 2 C9.64228612 0.54742871 4.46987439 -0.46987439 1 3 Z " fill="#0A202D" transform="translate(0,0)"/>
<path d="M0 0 C-0.33 1.32 -0.66 2.64 -1 4 C-1.99 4 -2.98 4 -4 4 C-4.66 5.32 -5.32 6.64 -6 8 C-3.36 8 -0.72 8 2 8 C2 6.35 2 4.7 2 3 C3.5 4.25 3.5 4.25 5 6 C5 7.32 5 8.64 5 10 C0.38 10 -4.24 10 -9 10 C-9 8.02 -9 6.04 -9 4 C-7.68 3.67 -6.36 3.34 -5 3 C-5 2.34 -5 1.68 -5 1 C-3 0 -3 0 0 0 Z " fill="#7F796A" transform="translate(10,4)"/>
<path d="M0 0 C0.33 1.32 0.66 2.64 1 4 C1.59167969 3.91621094 2.18335938 3.83242187 2.79296875 3.74609375 C7.09939457 3.19110576 10.75552644 2.76773348 15 4 C15.33 3.01 15.66 2.02 16 1 C16 2.65 16 4.3 16 6 C10.72 6 5.44 6 0 6 C0 4.02 0 2.04 0 0 Z " fill="#28303B" transform="translate(0,10)"/>
<path d="M0 0 C2 2 2 2 2.125 4.625 C2.08375 5.40875 2.0425 6.1925 2 7 C-0.64 7 -3.28 7 -6 7 C-5 4 -5 4 -3 2.9375 C-2.34 2.628125 -1.68 2.31875 -1 2 C-0.67 1.34 -0.34 0.68 0 0 Z " fill="#43443A" transform="translate(10,5)"/>
<path d="M0 0 C2.01822917 0.06510417 4.03645833 0.13020833 6.0546875 0.1953125 C6.0546875 0.5253125 6.0546875 0.8553125 6.0546875 1.1953125 C4.0746875 1.5253125 2.0946875 1.8553125 0.0546875 2.1953125 C0.0546875 3.5153125 0.0546875 4.8353125 0.0546875 6.1953125 C-1.2653125 6.5253125 -2.5853125 6.8553125 -3.9453125 7.1953125 C-4.0703125 4.8203125 -4.0703125 4.8203125 -3.9453125 2.1953125 C-1.9453125 0.1953125 -1.9453125 0.1953125 0 0 Z " fill="#103142" transform="translate(4.9453125,0.8046875)"/>
<path d="M0 0 C-0.33 1.32 -0.66 2.64 -1 4 C-1.99 4 -2.98 4 -4 4 C-4.66 5.32 -5.32 6.64 -6 8 C-6.66 7.67 -7.32 7.34 -8 7 C-7.67 6.01 -7.34 5.02 -7 4 C-6.34 4 -5.68 4 -5 4 C-5 3.01 -5 2.02 -5 1 C-3 0 -3 0 0 0 Z " fill="#736354" transform="translate(10,4)"/>
</svg>
